# xmcd
#
# Track frame offsets: 
#        150
#        22026
#        51562
#        66474
#        84721
#        111169
#        129708
#        153318
#        172869
#        195130
#
# Disc length: 3029 seconds
#
# Revision: 0
# Processed by: cddbd v1.5.2PL0 Copyright (c) Steve Scherf et al.
# Submitted via: ExactAudioCopy v0.99pb4
#
DISCID=860bd30a
DTITLE=Cheryl Lynn - It's Gonna Be Right
DYEAR=1985
DGENRE=R&B
TTITLE0=Fidelity
TTITLE1=Fade To Black
TTITLE2=Love's Been Here Before
TTITLE3=It's Gonna Be Right
TTITLE4=Let Me Love You
TTITLE5=Find Somebody New
TTITLE6=Loafin'
TTITLE7=Slipped Me A Monkey
TTITLE8=Tug 'O' War
TTITLE9=Fidelity (12" Version) [Bonus Track]
EXTD=
EXTT0=
EXTT1=
EXTT2=
EXTT3=
EXTT4=
EXTT5=
EXTT6=
EXTT7=
EXTT8=
EXTT9=
PLAYORDER=
